<?xml version="1.0" encoding="UTF-8"?>
<svg version="1.1" xmlns="http://www.w3.org/2000/svg" width="665" height="645">
<path d="M0 0 C199.32 0 398.64 0 604 0 C604 42.65113795 587.92367227 64.0841088 560.47900391 93.40771484 C558.22905917 95.82998945 556.02611086 98.29453788 553.8125 100.75 C549.10029542 105.89370006 544.23618574 110.87118962 539.3125 115.8125 C538.26122925 116.87065918 538.26122925 116.87065918 537.1887207 117.95019531 C533.21238225 121.91484002 529.13425221 125.69636559 524.88208008 129.36303711 C522.08406099 131.79664951 519.39179271 134.33841868 516.6875 136.875 C511.88792057 141.34024232 506.96506241 145.57449314 501.84765625 149.67578125 C499.81859862 151.33187081 497.83610173 153.00215082 495.87109375 154.73046875 C441.92434003 202.15339204 441.92434003 202.15339204 411.44407654 202.14717102 C410.47638574 202.15084771 409.50869495 202.1545244 408.51168019 202.1583125 C405.26616357 202.16933339 402.020679 202.1731905 398.77514648 202.17700195 C396.44908039 202.18326784 394.1230153 202.18991475 391.79695129 202.19691467 C384.15500585 202.21794376 376.51306024 202.22831646 368.87109375 202.23828125 C366.23858187 202.24232933 363.60607009 202.24644627 360.97355843 202.25063133 C350.02139167 202.26749869 339.06922697 202.28213292 328.11704922 202.28938007 C325.27717017 202.2912898 322.43729113 202.29321016 319.59741211 202.29516602 C318.89162103 202.29564976 318.18582994 202.2961335 317.45865125 202.2966319 C306.03420691 202.30492605 294.60986748 202.33025396 283.1854689 202.36274669 C271.44216171 202.3958727 259.69890773 202.41383384 247.95555359 202.41702431 C241.36782032 202.41937266 234.78025293 202.42830538 228.19256401 202.45348549 C221.99141824 202.47680521 215.79054711 202.48098353 209.58936882 202.47072411 C207.31907741 202.47022958 205.04877229 202.4765253 202.77852249 202.49028015 C180.78846717 202.61600854 180.78846717 202.61600854 171 198 C169.96088549 197.53373435 169.96088549 197.53373435 168.90077877 197.0580492 C146.99398305 186.65560339 127.51205673 170.43740694 109 155 C108.41492676 154.51402344 107.82985352 154.02804687 107.22705078 153.52734375 C100.49821207 147.929194 93.93025503 142.18987312 87.484375 136.265625 C85.33257417 134.30329091 83.14957317 132.39353464 80.9375 130.5 C76.89495003 126.9948033 73.17789858 123.19396084 69.421875 119.38671875 C67.42397953 117.41782499 65.40425515 115.60310952 63.25 113.8125 C57.28336253 108.69823931 52.11935541 102.74001309 46.8125 96.9609375 C45.08762399 95.09480009 43.34526048 93.24737265 41.59375 91.40625 C34.21908381 83.63168687 27.41718024 75.58178134 21 67 C20.34837891 66.13375 20.34837891 66.13375 19.68359375 65.25 C3.29912462 43.33882934 0 30.4242881 0 0 Z " fill="#FE552F" transform="translate(33,414)"/>
<path d="M0 0 C2.625 0.4375 2.625 0.4375 4.6171875 2.62109375 C41.8055763 54.7861294 43.77592727 158.27377745 53.40234375 220.7421875 C53.52847549 221.54286652 53.65460724 222.34354553 53.78456116 223.16848755 C54.40863943 227.3013721 54.75549462 231.24249407 54.625 235.4375 C55.30433594 235.52257812 55.98367187 235.60765625 56.68359375 235.6953125 C71.5631888 239.44979199 86.51053108 254.00183197 94.625 266.4375 C98.63944493 274.44298202 99.81319117 281.71381669 99.7890625 290.5703125 C99.78701813 291.45381378 99.78497375 292.33731506 99.78286743 293.24758911 C99.70312538 302.32736935 98.95619253 311.2885601 98 320.3125 C97.91429749 321.14937347 97.82859497 321.98624695 97.74029541 322.84848022 C96.36450729 336.20544348 94.57655448 349.48470742 92.5 362.75 C92.37212097 363.57699402 92.24424194 364.40398804 92.11248779 365.25604248 C91.74875691 367.58514521 91.37324154 369.9119566 90.9921875 372.23828125 C90.88394653 372.92699814 90.77570557 373.61571503 90.66418457 374.32530212 C90.09900994 377.66264131 89.53897905 379.56653143 87.625 382.4375 C87.50745361 381.60814941 87.38990723 380.77879883 87.26879883 379.92431641 C84.62140347 337.93827625 84.62140347 337.93827625 67.625 302.4375 C55.15559824 321.14160264 62.52909045 363.7870268 62.625 385.4375 C61.965 385.4375 61.305 385.4375 60.625 385.4375 C60.30861572 384.36193848 59.99223145 383.28637695 59.66625977 382.17822266 C52.06222532 356.24920685 52.06222532 356.24920685 43.6875 330.5625 C43.34726807 329.56299316 43.00703613 328.56348633 42.65649414 327.53369141 C39.08380629 316.11557368 39.08380629 316.11557368 31.625 307.4375 C21.84819909 325.29078862 27.85811124 353.83770983 30.26123047 373.20703125 C30.86907716 378.60503621 31.25307581 384.01882504 31.625 389.4375 C17.16303822 370.81664249 9.51394673 342.73261063 1.5 320.6875 C0.96922852 319.23609619 0.96922852 319.23609619 0.42773438 317.75537109 C-5.94854621 299.85249719 -8.30702889 284.16806139 0.0625 266.3828125 C4.64432184 257.9020365 11.22225693 249.45650626 19.01953125 243.65625 C21.55148963 240.15709584 20.24635412 236.49665323 19.625 232.4375 C19.0152209 228.70589619 18.34181821 224.98788187 17.65625 221.26953125 C17.24955386 219.02315546 16.84358241 216.77664838 16.43823242 214.5300293 C16.22427826 213.34661957 16.0103241 212.16320984 15.78988647 210.94393921 C7.34715757 164.03829661 0.35512666 116.86948524 -4.375 69.4375 C-4.50487305 68.16245605 -4.63474609 66.88741211 -4.76855469 65.57373047 C-6.04546474 52.69911493 -6.55985544 39.86955497 -6.625 26.9375 C-6.63442627 25.64223389 -6.64385254 24.34696777 -6.65356445 23.01245117 C-6.57796161 1.21172977 -6.57796161 1.21172977 0 0 Z " fill="#FE552F" transform="translate(55.375,10.5625)"/>
<path d="M0 0 C5.75718167 4.11972239 9.71496896 8.75042876 13 15 C13.4125 15.78375 13.825 16.5675 14.25 17.375 C15.43061811 21.50716338 15.6845886 25.72534545 16 30 C16.70125 29.855625 17.4025 29.71125 18.125 29.5625 C28.64498135 27.50424278 38.68907876 26.69733951 48.3125 32.25 C52.79067274 35.26518403 55.29288779 38.87866336 57 44 C57.92378578 52.31407206 55.53728364 58.04404412 51 65 C44.91992072 72.59188277 36.93905496 79.06373717 28 83 C21.8179304 83.50334178 21.8179304 83.50334178 18.5625 81.5 C16.76879242 78.63006787 16.30198925 76.33665529 16.49609375 72.94921875 C17.60234943 68.66998167 21.66293861 66.84050779 25.15625 64.64453125 C31.0941199 60.85202188 37.88489551 56.45408213 39.6875 49.25390625 C39.790625 48.51011719 39.89375 47.76632812 40 47 C31.77628522 43.82265565 23.61788313 45.11631423 15.3125 47.5625 C10.62815588 48.93865319 5.86354083 50.03350243 1 49 C-1.48590904 47.04556117 -1.96298853 46.13665773 -2.8125 43 C-3.19895433 39.66946634 -2.60919872 36.88101171 -1.875 33.625 C-0.76040154 28.06727616 -1.12885527 23.94750891 -4 19 C-7.01301317 15.65931166 -10.21994888 13.20227854 -14.75 12.6875 C-19.02278579 13.09834479 -20.79036005 14.13923396 -24 17 C-27.71526947 22.80432671 -28.85155756 29.38289288 -29.99609375 36.08203125 C-31.25217495 39.73297543 -32.74939505 40.98725661 -36 43 C-40.32240131 43 -43.53989836 41.81733039 -47.375 40 C-52.94164676 37.40666457 -58.10587668 36.05498014 -64.0625 38 C-66.28029215 39.93667469 -66.28029215 39.93667469 -66.6875 43.1875 C-65.03120998 52.37238101 -57.72499799 57.02441716 -50.51171875 62.1171875 C-48 64 -48 64 -47 66 C-46.59383771 69.65546065 -46.78565747 71.58917682 -48.5 74.875 C-51.24054039 77.20445934 -53.03892516 77.90914467 -56.65625 77.6796875 C-65.95210023 74.98389093 -75.01201165 65.72344527 -79.8125 57.5 C-83.59235048 50.10247085 -84.59539286 44.13920765 -83 36 C-80.84884477 29.5465343 -75.80655386 24.91338283 -69.79296875 21.890625 C-61.33337122 18.74975867 -53.55005827 19.73615478 -45 22 C-44.79246094 21.38253906 -44.58492188 20.76507813 -44.37109375 20.12890625 C-40.60528208 9.77686329 -34.91792278 2.13312085 -25 -3 C-16.60633698 -5.7921777 -7.40086376 -4.68077017 0 0 Z " fill="#FE552F" transform="translate(482,314)"/>
<path d="M0 0 C3.95580839 2.32023377 7.18134379 5.62144395 10.03125 9.19140625 C10.03125 9.85140625 10.03125 10.51140625 10.03125 11.19140625 C10.68351562 10.70929688 11.33578125 10.2271875 12.0078125 9.73046875 C19.20326056 4.53021868 24.86474261 1.15368843 34.03125 2.19140625 C40.33325254 3.31939114 44.24925036 6.59840669 48.265625 11.4765625 C53.60383727 19.68465438 55.27480652 29.56580049 54.03125 39.19140625 C52.91640023 43.94393394 51.56732572 48.55574916 50.03125 53.19140625 C50.69511719 53.63871094 51.35898437 54.08601563 52.04296875 54.546875 C56.77536873 57.78701455 61.18527208 60.89296034 65.03125 65.19140625 C65.753125 65.99578125 66.475 66.80015625 67.21875 67.62890625 C71.25958555 73.34181168 71.86511293 79.3727296 71.03125 86.19140625 C68.90382047 93.40173628 64.20129786 97.87631072 57.765625 101.44921875 C51.80416411 104.0642154 46.08181958 104.59429437 39.65625 104.69140625 C38.8830542 104.70993652 38.1098584 104.7284668 37.31323242 104.74755859 C33.41548949 104.70428334 31.44218843 104.44649008 28.0546875 102.34375 C25.45529133 99.57875523 25.03125 97.96961814 25.03125 94.19140625 C27.16168478 89.62618886 27.16168478 89.62618886 30.03125 88.19140625 C33.54108053 87.99147919 37.04431687 87.84610962 40.55859375 87.76171875 C45.39032166 87.55934271 48.83909993 86.84384688 53.03125 84.19140625 C54.54359267 81.96632148 54.54359267 81.96632148 54.03125 79.19140625 C49.9771082 72.55735603 44.21036227 69.94782325 37.37109375 66.76953125 C30.23967572 63.39983197 30.23967572 63.39983197 28.03125 61.19140625 C27.3807785 57.35444777 27.06326196 53.65870458 29.265625 50.3203125 C30.32993615 49.17960277 31.40717118 48.05083345 32.49609375 46.93359375 C36.34336462 42.56747973 37.5761064 36.92824712 37.31640625 31.21484375 C36.64534389 26.4530588 35.64608841 22.41344613 31.71875 19.44140625 C28.65228535 19.15615372 27.16675185 19.72978927 24.71484375 21.5703125 C21.72563468 24.44855325 19.26261558 27.74174987 16.765625 31.046875 C15.03125 33.19140625 15.03125 33.19140625 13.03125 34.19140625 C10.10276381 34.47480814 7.87815512 34.66873166 5.03125 34.19140625 C1.79554251 31.41794269 0.40340657 27.91019482 -1.40625 24.12890625 C-3.33516279 20.10933953 -5.10863113 17.61776668 -8.96875 15.19140625 C-11.38328912 16.9760656 -11.97176726 18.20231479 -12.78125 21.12890625 C-13.4679201 27.58360518 -11.91013478 34.41955108 -9.84375 40.50390625 C-8.72521092 43.93941913 -8.56990233 46.60177722 -8.96875 50.19140625 C-10.46875 52.62890625 -10.46875 52.62890625 -12.96875 54.19140625 C-15.77343955 54.8006216 -18.21611809 55.05697996 -20.96875 54.19140625 C-28.14375449 46.96335182 -29.53222095 35.07796803 -29.99609375 25.2890625 C-29.9171498 16.34584113 -28.22854534 8.86667473 -21.96875 2.19140625 C-15.23574773 -2.95572358 -7.68171087 -3.15498839 0 0 Z " fill="#FE552F" transform="translate(205.96875,296.80859375)"/>
<path d="M0 0 C7.61262057 7.12829397 12.50339728 13.98814277 13.16113281 24.59960938 C13.20653394 27.56652046 13.23518238 30.53277207 13.25 33.5 C13.270625 34.53253906 13.29125 35.56507813 13.3125 36.62890625 C13.34529009 42.98198575 12.99295027 46.76305922 8.5625 51.5546875 C3.38595976 55.92886401 -2.22505905 59.46998802 -8 63 C-9.34578125 63.84498047 -9.34578125 63.84498047 -10.71875 64.70703125 C-18.82453169 69.7243148 -25.35144334 72.07359118 -35 71 C-43.4458218 68.63815957 -49.80766766 61.61560435 -54 54.1875 C-56.89523946 47.73722162 -57.20081771 41.8881102 -55.11328125 35.12890625 C-53.86742021 32.01218411 -52.4698538 29.01745806 -51 26 C-50.45730469 24.81535156 -49.91460938 23.63070313 -49.35546875 22.41015625 C-43.66338874 10.19959536 -36.59343604 1.05043143 -23.609375 -3.9140625 C-15.38892751 -6.06977426 -6.93918767 -5.04908512 0 0 Z " fill="#FE552F" transform="translate(584,261)"/>
<path d="M0 0 C0.70825928 0.03448242 1.41651855 0.06896484 2.14624023 0.10449219 C10.48302887 0.63368947 18.05104052 2.0543692 24.03515625 8.375 C29.85479242 15.46723475 32.30479924 23.58085793 31.4375 32.6875 C30.10174951 38.74497317 28.0464064 43.37917445 23.4375 47.6875 C10.21812641 56.06714476 -7.82862512 54.41619481 -22.75 52.9375 C-23.46897461 52.87594727 -24.18794922 52.81439453 -24.92871094 52.75097656 C-28.26734718 52.36801067 -30.314879 51.88049286 -32.98828125 49.796875 C-38.12813262 42.90972924 -35.97254031 30.11407156 -35.21875 21.9765625 C-34.24960141 15.56402935 -33.09433046 10.21933046 -28.375 5.5 C-19.44212396 -0.25674233 -10.31837527 -0.53115028 0 0 Z " fill="#FE552F" transform="translate(349.5625,189.3125)"/>
<path d="M0 0 C3.34571062 1.80990327 4.99737238 3.40864423 7.00390625 6.625 C7.21005032 19.4059325 0.9902073 34.40137237 -7.8359375 43.52734375 C-14.77992931 49.33530418 -23.75977659 51.26535399 -32.66796875 50.97265625 C-43.65832859 49.82460223 -54.52303922 47.4628979 -64.93359375 43.75 C-65.57707764 43.53005371 -66.22056152 43.31010742 -66.88354492 43.08349609 C-71.78561831 41.20387677 -74.0512094 38.81183373 -76.99609375 34.625 C-78.38622319 29.93331315 -78.17819419 26.3291749 -76.26953125 21.78515625 C-74.128929 18.15401194 -71.22816117 15.25867503 -68.33984375 12.2109375 C-64.8004849 8.3058449 -61.96567477 3.96688739 -58.99609375 -0.375 C-45.91885376 -19.08490662 -16.96803683 -6.55625572 0 0 Z M-49.2578125 13.734375 C-51.10065318 16.79887411 -53.17468255 19.48075684 -55.43359375 22.25 C-56.11292969 23.08789062 -56.79226563 23.92578125 -57.4921875 24.7890625 C-57.98847656 25.39492188 -58.48476563 26.00078125 -58.99609375 26.625 C-58.06356824 29.07163004 -58.06356824 29.07163004 -54.390625 29.87890625 C-52.86561661 30.32320003 -51.33812297 30.75902839 -49.80859375 31.1875 C-49.05255859 31.40857422 -48.29652344 31.62964844 -47.51757812 31.85742188 C-39.43393637 34.17805103 -31.53259888 36.00901852 -23.30859375 33.5 C-16.0816385 29.40927061 -13.46142618 23.28268061 -10.99609375 15.625 C-10.99609375 14.965 -10.99609375 14.305 -10.99609375 13.625 C-13.89070594 12.6420943 -16.78667454 11.66356299 -19.68359375 10.6875 C-20.50021484 10.40970703 -21.31683594 10.13191406 -22.15820312 9.84570312 C-26.08061084 8.52764709 -29.89735715 7.27330632 -33.99609375 6.625 C-34.79789062 6.47675781 -35.5996875 6.32851563 -36.42578125 6.17578125 C-43.61144963 5.47558034 -45.66881349 7.73843394 -49.2578125 13.734375 Z " fill="#FE552F" transform="translate(372.99609375,333.375)"/>
<path d="M0 0 C8.15822232 4.91563078 14.85071521 12.44860475 17.75 21.5625 C19.42180753 30.65226147 19.59716322 39.57955821 14.5 47.5625 C7.6684431 55.93829089 -3.84590073 62.26150954 -14.4453125 63.90234375 C-24.62075418 64.62916101 -32.40853367 58.10355968 -39.76171875 51.83203125 C-44.62990183 47.39182031 -49.06530312 43.27578233 -50.25 36.5625 C-50.64864922 27.2500543 -46.98699642 21.80908684 -41.015625 15.0234375 C-30.67891486 4.12709656 -15.68106822 -6.90976648 0 0 Z M-22.25 20.5625 C-23.45849609 21.58923828 -23.45849609 21.58923828 -24.69140625 22.63671875 C-29.40026326 26.70908971 -29.40026326 26.70908971 -33.25 31.5625 C-33.2191576 35.28826183 -32.33085415 36.47749626 -29.73828125 39.203125 C-28.69041789 40.08581444 -27.63136166 40.95535764 -26.5625 41.8125 C-26.04494141 42.25851562 -25.52738281 42.70453125 -24.99414062 43.1640625 C-21.49628756 46.03901022 -18.80073039 47.50230515 -14.25 47.5625 C-8.49140162 45.43796856 -1.54120487 41.78303186 1.75 36.5625 C2.90639171 31.16072501 3.02322988 26.58299799 0.01953125 21.81640625 C-4.5501134 16.5254948 -4.5501134 16.5254948 -10.875 14.125 C-15.83189887 14.76756096 -18.52989986 17.36711561 -22.25 20.5625 Z " fill="#FE552F" transform="translate(318.25,255.4375)"/>
<path d="M0 0 C5.15814375 4.69031211 8.90882616 12.28650696 9.48828125 19.23046875 C9.64189287 26.126822 9.73624002 31.85534425 5.25 37.375 C-2.64812828 45.49020157 -12.02163549 48.45208045 -23.12084961 48.84521484 C-34.98815401 48.97965733 -46.32039789 47.19134488 -55.75 39.375 C-59.29526716 35.19340283 -60.65854694 31.86218331 -60.75 26.375 C-58.9612999 16.33076098 -54.05971756 6.23757624 -46.02734375 -0.19140625 C-32.15223083 -8.92582553 -13.2274876 -9.97018338 0 0 Z M-39.75 16.375 C-41.4619273 19.26554392 -43.00342502 22.08775513 -43.75 25.375 C-42.9733242 27.90033184 -42.32394358 29.01561477 -40.078125 30.421875 C-31.89043969 33.19214446 -22.4106334 33.94366407 -14.125 31.125 C-9.84933369 28.91114103 -9.84933369 28.91114103 -6.75 25.375 C-5.71905323 20.3348158 -7.66670493 17.24839585 -10.265625 13.109375 C-12.42922102 10.58138386 -14.47947011 9.5653323 -17.7578125 9.07421875 C-25.56699839 9.03099447 -34.31509758 10.3006973 -39.75 16.375 Z " fill="#FE552F" transform="translate(426.75,252.625)"/>
<path d="M0 0 C2.87366616 4.31049924 2.57410908 7.9406637 2 13 C-2.41384171 29.67729964 -17.02641492 40.39049926 -31.12158203 48.92675781 C-39.26787327 53.58117636 -47.57371313 56.44409445 -57 55 C-60.125 53.8125 -60.125 53.8125 -62 52 C-63.19337548 48.16964968 -63.03359147 46.06718293 -61.25 42.5 C-50.99502423 23.53956402 -28.89327801 4.964426 -8.375 -1.875 C-5.16195387 -2.04410769 -2.92581387 -1.30036172 0 0 Z " fill="#FE552F" transform="translate(635,340)"/>
<path d="M0 0 C2.4375 1.375 2.4375 1.375 4 4 C6.22094244 14.72757105 0.72277589 25.8360572 -5 34.5625 C-10.09965326 41.55409882 -17.15908713 51.07954357 -25 55 C-31.21856639 55.57579318 -31.21856639 55.57579318 -34.375 53.25 C-36.02009172 50.9721807 -36.83099388 49.78860101 -37 47 C-35.67682382 42.26741282 -32.81540348 39.6110818 -29.3125 36.375 C-20.52470808 27.91706239 -14.63958128 18.69931954 -12.0625 6.6875 C-11 3 -11 3 -9.3125 1 C-5.99073617 -0.43643841 -3.5776809 -0.44721011 0 0 Z " fill="#FE552F" transform="translate(490,218)"/>
<path d="M0 0 C1.54586876 3.09173752 1.29359521 5.59429552 1 9 C-0.59375 11.22265625 -0.59375 11.22265625 -3 13 C-6.20703125 13.28515625 -6.20703125 13.28515625 -9.8125 13.0625 C-15.56682064 12.91326969 -19.13132254 12.89233354 -24 16 C-24.86367101 17.03798993 -25.69680771 18.10203566 -26.5 19.1875 C-29 22 -29 22 -32.5625 22.5625 C-37.71991842 21.7185588 -37.71991842 21.7185588 -40 19 C-41.32740781 14.68592462 -41.25983827 12.6171159 -39.5 8.4375 C-34.81664796 1.3966498 -29.5401813 -1.83949291 -21.26953125 -3.59765625 C-13.74317795 -4.52383832 -6.3228017 -4.54698798 0 0 Z " fill="#FE552F" transform="translate(483,374)"/>
<path d="M0 0 C5.98243936 3.43057388 11.49880459 7.44617469 13.625 14.25 C13.70107661 17.90167723 12.90966696 19.39292819 10.6875 22.25 C7.6875 24.25 7.6875 24.25 4.4375 24.3125 C-0.01235395 23.05170805 -1.69050705 21.27513737 -4.63671875 17.84375 C-6.54365748 16.03015793 -7.71712934 15.54600969 -10.3125 15.25 C-10.9725 15.58 -11.6325 15.91 -12.3125 16.25 C-19.52394674 16.70786963 -19.52394674 16.70786963 -22.25 15.125 C-23.78099826 12.42323836 -24.1882742 10.35564495 -24.3125 7.25 C-22.6803072 3.55608997 -20.72362683 1.38195427 -17.3125 -0.75 C-11.53696782 -2.67517739 -5.52807918 -2.67996234 0 0 Z " fill="#FE552F" transform="translate(218.3125,351.75)"/>
</svg>
